<svg width="53" height="53" viewBox="0 0 53 53" fill="none" xmlns="http://www.w3.org/2000/svg">
<g filter="url(#filter0_b)">
<mask id="path-1-inside-1" fill="white">
<ellipse cx="26.5001" cy="26.5" rx="29.0802" ry="8.39641" transform="rotate(45 26.5001 26.5)"/>
</mask>
<path d="M22.4072 22.4071C28.0892 16.7252 34.6363 14.3134 39.5892 13.4691C44.2267 12.6785 47.8267 13.1594 49.5985 13.4936C52.9697 14.1295 54.5045 15.16 53.6905 14.7108C52.4894 14.0478 49.2569 11.8198 45.2186 7.78146L-4.09278 57.0929C3.22545 64.4111 11.6035 71.1354 19.9934 75.7659C23.975 77.9634 29.8005 80.7259 36.6734 82.0222C42.1832 83.0614 58.5076 84.9295 71.7186 71.7185L22.4072 22.4071ZM45.2186 7.78146C41.1803 3.74315 38.9523 0.510696 38.2893 -0.690473C37.8401 -1.50444 38.8706 0.0303349 39.5065 3.40156C39.8406 5.17337 40.3216 8.77341 39.531 13.4109C38.6867 18.3637 36.2749 24.9109 30.5929 30.5929L-18.7185 -18.7185C-31.9294 -5.50755 -30.0613 10.8169 -29.0222 16.3266C-27.7259 23.1996 -24.9633 29.025 -22.7658 33.0066C-18.1353 41.3966 -11.411 49.7746 -4.09278 57.0929L45.2186 7.78146ZM30.5929 30.5929C24.9109 36.2748 18.3638 38.6866 13.411 39.5309C8.77348 40.3215 5.17345 39.8406 3.40164 39.5064C0.0304079 38.8705 -1.50437 37.84 -0.690402 38.2892C0.51077 38.9522 3.74323 41.1802 7.78154 45.2185L57.0929 -4.09285C49.7747 -11.4111 41.3966 -18.1354 33.0067 -22.7659C29.0251 -24.9634 23.1996 -27.7259 16.3267 -29.0222C10.817 -30.0614 -5.50748 -31.9295 -18.7185 -18.7185L30.5929 30.5929ZM7.78154 45.2185C11.8198 49.2568 14.0479 52.4893 14.7108 53.6905C15.1601 54.5044 14.1295 52.9697 13.4937 49.5984C13.1595 47.8266 12.6786 44.2266 13.4691 39.5891C14.3134 34.6363 16.7252 28.0891 22.4072 22.4071L71.7186 71.7185C84.9296 58.5075 83.0615 42.1831 82.0223 36.6734C80.726 29.8004 77.9635 23.975 75.766 19.9934C71.1355 11.6034 64.4112 3.22538 57.0929 -4.09285L7.78154 45.2185Z" fill="white" mask="url(#path-1-inside-1)"/>
</g>
<g filter="url(#filter1_b)">
<path d="M26.4999 48.8223C38.8281 48.8223 48.8221 38.8283 48.8221 26.5001C48.8221 14.172 38.8281 4.17798 26.4999 4.17798C14.1717 4.17798 4.17773 14.172 4.17773 26.5001C4.17773 38.8283 14.1717 48.8223 26.4999 48.8223Z" fill="#383838"/>
<path d="M31.3879 26.5001C31.3879 29.1997 29.1994 31.3881 26.4999 31.3881C23.8004 31.3881 21.6119 29.1997 21.6119 26.5001C21.6119 23.8006 23.8004 21.6122 26.4999 21.6122C29.1994 21.6122 31.3879 23.8006 31.3879 26.5001Z" stroke="white" stroke-width="34.8684"/>
</g>
<defs>
<filter id="filter0_b" x="-0.81904" y="-0.819162" width="54.6383" height="54.6383" filterUnits="userSpaceOnUse" color-interpolation-filters="sRGB">
<feFlood flood-opacity="0" result="BackgroundImageFix"/>
<feGaussianBlur in="BackgroundImage" stdDeviation="0.409581"/>
<feComposite in2="SourceAlpha" operator="in" result="effect1_backgroundBlur"/>
<feBlend mode="normal" in="SourceGraphic" in2="effect1_backgroundBlur" result="shape"/>
</filter>
<filter id="filter1_b" x="3.35857" y="3.35882" width="46.2827" height="46.2827" filterUnits="userSpaceOnUse" color-interpolation-filters="sRGB">
<feFlood flood-opacity="0" result="BackgroundImageFix"/>
<feGaussianBlur in="BackgroundImage" stdDeviation="0.409581"/>
<feComposite in2="SourceAlpha" operator="in" result="effect1_backgroundBlur"/>
<feBlend mode="normal" in="SourceGraphic" in2="effect1_backgroundBlur" result="shape"/>
</filter>
</defs>
</svg>
