<svg width="90" height="36" viewBox="0 0 90 36" fill="none" xmlns="http://www.w3.org/2000/svg">
<path d="M28.592 14.84C29.072 14.104 29.672 13.528 30.392 13.112C31.112 12.68 31.912 12.464 32.792 12.464V16.808H31.664C30.64 16.808 29.872 17.032 29.36 17.48C28.848 17.912 28.592 18.68 28.592 19.784V26H24.488V12.608H28.592V14.84ZM38.8576 14.504C39.2416 13.88 39.7936 13.376 40.5136 12.992C41.2336 12.608 42.0576 12.416 42.9856 12.416C44.0896 12.416 45.0896 12.696 45.9856 13.256C46.8816 13.816 47.5856 14.616 48.0976 15.656C48.6256 16.696 48.8896 17.904 48.8896 19.28C48.8896 20.656 48.6256 21.872 48.0976 22.928C47.5856 23.968 46.8816 24.776 45.9856 25.352C45.0896 25.912 44.0896 26.192 42.9856 26.192C42.0416 26.192 41.2176 26.008 40.5136 25.64C39.8096 25.256 39.2576 24.752 38.8576 24.128V26H34.7536V8.24H38.8576V14.504ZM44.7136 19.28C44.7136 18.256 44.4256 17.456 43.8496 16.88C43.2896 16.288 42.5936 15.992 41.7616 15.992C40.9456 15.992 40.2496 16.288 39.6736 16.88C39.1136 17.472 38.8336 18.28 38.8336 19.304C38.8336 20.328 39.1136 21.136 39.6736 21.728C40.2496 22.32 40.9456 22.616 41.7616 22.616C42.5776 22.616 43.2736 22.32 43.8496 21.728C44.4256 21.12 44.7136 20.304 44.7136 19.28ZM53.1067 11.216C52.3867 11.216 51.7947 11.008 51.3307 10.592C50.8827 10.16 50.6587 9.632 50.6587 9.008C50.6587 8.368 50.8827 7.84 51.3307 7.424C51.7947 6.992 52.3867 6.776 53.1067 6.776C53.8107 6.776 54.3867 6.992 54.8347 7.424C55.2987 7.84 55.5307 8.368 55.5307 9.008C55.5307 9.632 55.2987 10.16 54.8347 10.592C54.3867 11.008 53.8107 11.216 53.1067 11.216ZM55.1467 12.608V26H51.0427V12.608H55.1467ZM65.5848 22.52V26H63.4968C62.0088 26 60.8488 25.64 60.0168 24.92C59.1848 24.184 58.7688 22.992 58.7688 21.344V16.016H57.1368V12.608H58.7688V9.344H62.8728V12.608H65.5608V16.016H62.8728V21.392C62.8728 21.792 62.9688 22.08 63.1608 22.256C63.3528 22.432 63.6728 22.52 64.1208 22.52H65.5848ZM67.0548 19.28C67.0548 17.904 67.3108 16.696 67.8228 15.656C68.3508 14.616 69.0628 13.816 69.9588 13.256C70.8548 12.696 71.8548 12.416 72.9588 12.416C73.9028 12.416 74.7268 12.608 75.4308 12.992C76.1508 13.376 76.7028 13.88 77.0868 14.504V12.608H81.1908V26H77.0868V24.104C76.6868 24.728 76.1268 25.232 75.4068 25.616C74.7028 26 73.8788 26.192 72.9348 26.192C71.8468 26.192 70.8548 25.912 69.9588 25.352C69.0628 24.776 68.3508 23.968 67.8228 22.928C67.3108 21.872 67.0548 20.656 67.0548 19.28ZM77.0868 19.304C77.0868 18.28 76.7988 17.472 76.2228 16.88C75.6628 16.288 74.9748 15.992 74.1588 15.992C73.3428 15.992 72.6468 16.288 72.0708 16.88C71.5108 17.456 71.2308 18.256 71.2308 19.28C71.2308 20.304 71.5108 21.12 72.0708 21.728C72.6468 22.32 73.3428 22.616 74.1588 22.616C74.9748 22.616 75.6628 22.32 76.2228 21.728C76.7988 21.136 77.0868 20.328 77.0868 19.304ZM88.2639 8.24V26H84.1599V8.24H88.2639Z" fill="#FFFFFF"/>
<g filter="url(#filter0_b)">
<mask id="path-2-inside-1" fill="#FFFFFF">
<ellipse cx="12" cy="18" rx="13.1684" ry="3.80215" transform="rotate(45 12 18)"/>
</mask>
<path d="M10.1467 16.1466C12.7196 13.5737 15.6844 12.4815 17.9272 12.0992C20.0272 11.7412 21.6574 11.959 22.4597 12.1103C23.9863 12.3982 24.6813 12.8649 24.3127 12.6615C23.7688 12.3613 22.305 11.3523 20.4763 9.52368L-1.85334 31.8534C1.46058 35.1673 5.25441 38.2123 9.05363 40.3091C10.8566 41.3042 13.4946 42.5551 16.6068 43.1421C19.1018 43.6127 26.494 44.4587 32.4763 38.4763L10.1467 16.1466ZM20.4763 9.52368C18.6477 7.69501 17.6388 6.23126 17.3386 5.68733C17.1351 5.31874 17.6018 6.01374 17.8897 7.54033C18.041 8.34266 18.2588 9.97286 17.9008 12.0729C17.5185 14.3157 16.4264 17.2804 13.8534 19.8534L-8.47629 -2.47632C-14.4586 3.50601 -13.6127 10.8982 -13.1421 13.3932C-12.5551 16.5055 -11.3042 19.1434 -10.3091 20.9464C-8.21223 24.7456 -5.16726 28.5395 -1.85334 31.8534L20.4763 9.52368ZM13.8534 19.8534C11.2804 22.4263 8.31568 23.5185 6.07289 23.9008C3.97289 24.2588 2.34269 24.041 1.54036 23.8897C0.0137627 23.6018 -0.681231 23.1351 -0.312641 23.3385C0.231284 23.6387 1.69504 24.6477 3.52371 26.4763L25.8534 4.14663C22.5395 0.832714 18.7456 -2.21225 14.9464 -4.30909C13.1434 -5.30418 10.5055 -6.55514 7.39322 -7.14214C4.89825 -7.61271 -2.49396 -8.45865 -8.47629 -2.47632L13.8534 19.8534ZM3.52371 26.4763C5.35238 28.305 6.3613 29.7687 6.6615 30.3127C6.86493 30.6813 6.39827 29.9863 6.11034 28.4597C5.95902 27.6573 5.74123 26.0271 6.09922 23.9271C6.48154 21.6843 7.57368 18.7196 10.1467 16.1466L32.4763 38.4763C38.4587 32.494 37.6127 25.1018 37.1422 22.6068C36.5552 19.4945 35.3042 16.8566 34.3091 15.0536C32.2123 11.2544 29.1673 7.46055 25.8534 4.14663L3.52371 26.4763Z" fill="#FFFFFF" mask="url(#path-2-inside-1)"/>
</g>
<g filter="url(#filter1_b)">
<path d="M12 28.1081C17.5826 28.1081 22.1081 23.5826 22.1081 18C22.1081 12.4174 17.5826 7.89185 12 7.89185C6.41742 7.89185 1.89185 12.4174 1.89185 18C1.89185 23.5826 6.41742 28.1081 12 28.1081Z" fill="#383838"/>
<path d="M14.2134 18C14.2134 19.2224 13.2224 20.2134 12 20.2134C10.7776 20.2134 9.78658 19.2224 9.78658 18C9.78658 16.7776 10.7776 15.7866 12 15.7866C13.2224 15.7866 14.2134 16.7776 14.2134 18Z" stroke="#FFFFFF" stroke-width="15.7895"/>
</g>
<defs>
<filter id="filter0_b" x="-0.370941" y="5.62906" width="24.7419" height="24.7419" filterUnits="userSpaceOnUse" color-interpolation-filters="sRGB">
<feFlood flood-opacity="0" result="BackgroundImageFix"/>
<feGaussianBlur in="BackgroundImage" stdDeviation="0.185471"/>
<feComposite in2="SourceAlpha" operator="in" result="effect1_backgroundBlur"/>
<feBlend mode="normal" in="SourceGraphic" in2="effect1_backgroundBlur" result="shape"/>
</filter>
<filter id="filter1_b" x="1.5209" y="7.5209" width="20.9582" height="20.9582" filterUnits="userSpaceOnUse" color-interpolation-filters="sRGB">
<feFlood flood-opacity="0" result="BackgroundImageFix"/>
<feGaussianBlur in="BackgroundImage" stdDeviation="0.185471"/>
<feComposite in2="SourceAlpha" operator="in" result="effect1_backgroundBlur"/>
<feBlend mode="normal" in="SourceGraphic" in2="effect1_backgroundBlur" result="shape"/>
</filter>
</defs>
</svg>
