<svg width="89" height="36" viewBox="0 0 89 36" fill="none" xmlns="http://www.w3.org/2000/svg">
<path d="M26.7002 14.84C27.1802 14.104 27.7802 13.528 28.5002 13.112C29.2202 12.68 30.0202 12.464 30.9002 12.464V16.808H29.7722C28.7482 16.808 27.9802 17.032 27.4682 17.48C26.9562 17.912 26.7002 18.68 26.7002 19.784V26H22.5962V12.608H26.7002V14.84ZM36.9658 14.504C37.3498 13.88 37.9018 13.376 38.6218 12.992C39.3418 12.608 40.1658 12.416 41.0938 12.416C42.1978 12.416 43.1978 12.696 44.0938 13.256C44.9898 13.816 45.6938 14.616 46.2058 15.656C46.7338 16.696 46.9978 17.904 46.9978 19.28C46.9978 20.656 46.7338 21.872 46.2058 22.928C45.6938 23.968 44.9898 24.776 44.0938 25.352C43.1978 25.912 42.1978 26.192 41.0938 26.192C40.1498 26.192 39.3258 26.008 38.6218 25.64C37.9178 25.256 37.3658 24.752 36.9658 24.128V26H32.8618V8.24H36.9658V14.504ZM42.8218 19.28C42.8218 18.256 42.5338 17.456 41.9578 16.88C41.3978 16.288 40.7018 15.992 39.8698 15.992C39.0538 15.992 38.3578 16.288 37.7818 16.88C37.2218 17.472 36.9418 18.28 36.9418 19.304C36.9418 20.328 37.2218 21.136 37.7818 21.728C38.3578 22.32 39.0538 22.616 39.8698 22.616C40.6858 22.616 41.3818 22.32 41.9578 21.728C42.5338 21.12 42.8218 20.304 42.8218 19.28ZM51.2149 11.216C50.4949 11.216 49.9029 11.008 49.4389 10.592C48.9909 10.16 48.7669 9.632 48.7669 9.008C48.7669 8.368 48.9909 7.84 49.4389 7.424C49.9029 6.992 50.4949 6.776 51.2149 6.776C51.9189 6.776 52.4949 6.992 52.9429 7.424C53.4069 7.84 53.6389 8.368 53.6389 9.008C53.6389 9.632 53.4069 10.16 52.9429 10.592C52.4949 11.008 51.9189 11.216 51.2149 11.216ZM53.2549 12.608V26H49.1509V12.608H53.2549ZM63.693 22.52V26H61.605C60.117 26 58.957 25.64 58.125 24.92C57.293 24.184 56.877 22.992 56.877 21.344V16.016H55.245V12.608H56.877V9.344H60.981V12.608H63.669V16.016H60.981V21.392C60.981 21.792 61.077 22.08 61.269 22.256C61.461 22.432 61.781 22.52 62.229 22.52H63.693ZM65.163 19.28C65.163 17.904 65.419 16.696 65.931 15.656C66.459 14.616 67.171 13.816 68.067 13.256C68.963 12.696 69.963 12.416 71.067 12.416C72.011 12.416 72.835 12.608 73.539 12.992C74.259 13.376 74.811 13.88 75.195 14.504V12.608H79.299V26H75.195V24.104C74.795 24.728 74.235 25.232 73.515 25.616C72.811 26 71.987 26.192 71.043 26.192C69.955 26.192 68.963 25.912 68.067 25.352C67.171 24.776 66.459 23.968 65.931 22.928C65.419 21.872 65.163 20.656 65.163 19.28ZM75.195 19.304C75.195 18.28 74.907 17.472 74.331 16.88C73.771 16.288 73.083 15.992 72.267 15.992C71.451 15.992 70.755 16.288 70.179 16.88C69.619 17.456 69.339 18.256 69.339 19.28C69.339 20.304 69.619 21.12 70.179 21.728C70.755 22.32 71.451 22.616 72.267 22.616C73.083 22.616 73.771 22.32 74.331 21.728C74.907 21.136 75.195 20.328 75.195 19.304ZM86.3721 8.24V26H82.2681V8.24H86.3721Z" fill="#383838"/>
<g filter="url(#filter0_b)">
<path fill-rule="evenodd" clip-rule="evenodd" d="M20.2163 18C20.2163 15.7112 19.4556 13.6 18.1731 11.9056C17.8916 11.5336 17.585 11.1817 17.2557 10.8525C16.9265 10.5232 16.5746 10.2166 16.2026 9.93506C14.5082 8.65261 12.397 7.89185 10.1081 7.89185C8.24012 7.89185 6.49045 8.39857 4.98908 9.28206C3.02511 8.27106 1.48873 7.99653 0.796735 8.68852C0.104748 9.38051 0.379267 10.9169 1.39026 12.8808C0.50674 14.3822 0 16.1319 0 18C0 20.2888 0.760743 22.4 2.04317 24.0944C2.3247 24.4664 2.63136 24.8183 2.96064 25.1476C3.28992 25.4768 3.64181 25.7835 4.01378 26.065C5.7082 27.3474 7.81934 28.1081 10.1081 28.1081C11.9762 28.1081 13.7259 27.6014 15.2273 26.7179C17.1913 27.7289 18.7277 28.0035 19.4197 27.3115C20.1117 26.6195 19.8371 25.0831 18.8261 23.119C19.7096 21.6177 20.2163 19.868 20.2163 18ZM10.1082 24C13.4219 24 16.1082 21.3137 16.1082 18C16.1082 14.6863 13.4219 12 10.1082 12C6.79451 12 4.10822 14.6863 4.10822 18C4.10822 21.3137 6.79451 24 10.1082 24Z" fill="#383838"/>
</g>
<defs>
<filter id="filter0_b" x="-0.370941" y="7.5209" width="20.9582" height="20.9582" filterUnits="userSpaceOnUse" color-interpolation-filters="sRGB">
<feFlood flood-opacity="0" result="BackgroundImageFix"/>
<feGaussianBlur in="BackgroundImage" stdDeviation="0.185471"/>
<feComposite in2="SourceAlpha" operator="in" result="effect1_backgroundBlur"/>
<feBlend mode="normal" in="SourceGraphic" in2="effect1_backgroundBlur" result="shape"/>
</filter>
</defs>
</svg>
